<mxfile host="app.diagrams.net" modified="2023-08-10T16:13:31.022Z" agent="Mozilla/5.0 (Macintosh; Intel Mac OS X 10_15_7) AppleWebKit/537.36 (KHTML, like Gecko) Chrome/115.0.0.0 Safari/537.36" etag="lYKCrfYO2MKKfc0Ptsxf" version="21.6.1" type="github">
  <diagram name="24.两两交换链表中的节点" id="eKiGoIyBGXaImDXo5mR2">
    <mxGraphModel dx="1140" dy="654" grid="1" gridSize="10" guides="1" tooltips="1" connect="1" arrows="1" fold="1" page="1" pageScale="1" pageWidth="980" pageHeight="1390" math="0" shadow="0">
      <root>
        <mxCell id="0" />
        <mxCell id="1" parent="0" />
        <mxCell id="5dwO7DrPXBND0EwMDP1_-57" value="" style="group" vertex="1" connectable="0" parent="1">
          <mxGeometry x="50" y="80" width="820" height="950" as="geometry" />
        </mxCell>
        <mxCell id="5dwO7DrPXBND0EwMDP1_-55" value="" style="rounded=0;whiteSpace=wrap;html=1;fillColor=#fff2cc;strokeColor=#d6b656;" vertex="1" parent="5dwO7DrPXBND0EwMDP1_-57">
          <mxGeometry width="820" height="950" as="geometry" />
        </mxCell>
        <mxCell id="5dwO7DrPXBND0EwMDP1_-2" value="1" style="ellipse;whiteSpace=wrap;html=1;aspect=fixed;fontSize=20;fillColor=#f8cecc;strokeColor=#b85450;" vertex="1" parent="5dwO7DrPXBND0EwMDP1_-57">
          <mxGeometry x="230" y="150" width="50" height="50" as="geometry" />
        </mxCell>
        <mxCell id="5dwO7DrPXBND0EwMDP1_-3" value="2" style="ellipse;whiteSpace=wrap;html=1;aspect=fixed;fontSize=20;" vertex="1" parent="5dwO7DrPXBND0EwMDP1_-57">
          <mxGeometry x="360" y="150" width="50" height="50" as="geometry" />
        </mxCell>
        <mxCell id="5dwO7DrPXBND0EwMDP1_-4" value="" style="edgeStyle=orthogonalEdgeStyle;rounded=0;orthogonalLoop=1;jettySize=auto;html=1;" edge="1" parent="5dwO7DrPXBND0EwMDP1_-57" source="5dwO7DrPXBND0EwMDP1_-2" target="5dwO7DrPXBND0EwMDP1_-3">
          <mxGeometry relative="1" as="geometry" />
        </mxCell>
        <mxCell id="5dwO7DrPXBND0EwMDP1_-5" value="3" style="ellipse;whiteSpace=wrap;html=1;aspect=fixed;fontSize=20;" vertex="1" parent="5dwO7DrPXBND0EwMDP1_-57">
          <mxGeometry x="490" y="150" width="50" height="50" as="geometry" />
        </mxCell>
        <mxCell id="5dwO7DrPXBND0EwMDP1_-6" value="" style="edgeStyle=orthogonalEdgeStyle;rounded=0;orthogonalLoop=1;jettySize=auto;html=1;" edge="1" parent="5dwO7DrPXBND0EwMDP1_-57" source="5dwO7DrPXBND0EwMDP1_-3" target="5dwO7DrPXBND0EwMDP1_-5">
          <mxGeometry relative="1" as="geometry" />
        </mxCell>
        <mxCell id="5dwO7DrPXBND0EwMDP1_-7" value="4" style="ellipse;whiteSpace=wrap;html=1;aspect=fixed;fontSize=20;" vertex="1" parent="5dwO7DrPXBND0EwMDP1_-57">
          <mxGeometry x="620" y="150" width="50" height="50" as="geometry" />
        </mxCell>
        <mxCell id="5dwO7DrPXBND0EwMDP1_-8" value="" style="edgeStyle=orthogonalEdgeStyle;rounded=0;orthogonalLoop=1;jettySize=auto;html=1;" edge="1" parent="5dwO7DrPXBND0EwMDP1_-57" source="5dwO7DrPXBND0EwMDP1_-5" target="5dwO7DrPXBND0EwMDP1_-7">
          <mxGeometry relative="1" as="geometry" />
        </mxCell>
        <mxCell id="5dwO7DrPXBND0EwMDP1_-10" value="1" style="ellipse;whiteSpace=wrap;html=1;aspect=fixed;fontSize=20;" vertex="1" parent="5dwO7DrPXBND0EwMDP1_-57">
          <mxGeometry x="230" y="320" width="50" height="50" as="geometry" />
        </mxCell>
        <mxCell id="5dwO7DrPXBND0EwMDP1_-12" value="2" style="ellipse;whiteSpace=wrap;html=1;aspect=fixed;fontSize=20;fillColor=#f8cecc;strokeColor=#b85450;" vertex="1" parent="5dwO7DrPXBND0EwMDP1_-57">
          <mxGeometry x="360" y="320" width="50" height="50" as="geometry" />
        </mxCell>
        <mxCell id="5dwO7DrPXBND0EwMDP1_-9" value="" style="edgeStyle=orthogonalEdgeStyle;rounded=0;orthogonalLoop=1;jettySize=auto;html=1;" edge="1" parent="5dwO7DrPXBND0EwMDP1_-57" source="5dwO7DrPXBND0EwMDP1_-10" target="5dwO7DrPXBND0EwMDP1_-12">
          <mxGeometry relative="1" as="geometry" />
        </mxCell>
        <mxCell id="5dwO7DrPXBND0EwMDP1_-14" value="3" style="ellipse;whiteSpace=wrap;html=1;aspect=fixed;fontSize=20;" vertex="1" parent="5dwO7DrPXBND0EwMDP1_-57">
          <mxGeometry x="490" y="320" width="50" height="50" as="geometry" />
        </mxCell>
        <mxCell id="5dwO7DrPXBND0EwMDP1_-11" value="" style="edgeStyle=orthogonalEdgeStyle;rounded=0;orthogonalLoop=1;jettySize=auto;html=1;" edge="1" parent="5dwO7DrPXBND0EwMDP1_-57" source="5dwO7DrPXBND0EwMDP1_-12" target="5dwO7DrPXBND0EwMDP1_-14">
          <mxGeometry relative="1" as="geometry" />
        </mxCell>
        <mxCell id="5dwO7DrPXBND0EwMDP1_-15" value="4" style="ellipse;whiteSpace=wrap;html=1;aspect=fixed;fontSize=20;" vertex="1" parent="5dwO7DrPXBND0EwMDP1_-57">
          <mxGeometry x="620" y="320" width="50" height="50" as="geometry" />
        </mxCell>
        <mxCell id="5dwO7DrPXBND0EwMDP1_-13" value="" style="edgeStyle=orthogonalEdgeStyle;rounded=0;orthogonalLoop=1;jettySize=auto;html=1;" edge="1" parent="5dwO7DrPXBND0EwMDP1_-57" source="5dwO7DrPXBND0EwMDP1_-14" target="5dwO7DrPXBND0EwMDP1_-15">
          <mxGeometry relative="1" as="geometry" />
        </mxCell>
        <mxCell id="5dwO7DrPXBND0EwMDP1_-18" value="" style="edgeStyle=orthogonalEdgeStyle;rounded=0;orthogonalLoop=1;jettySize=auto;html=1;fillColor=#f8cecc;strokeColor=#b85450;" edge="1" parent="5dwO7DrPXBND0EwMDP1_-57" source="5dwO7DrPXBND0EwMDP1_-17" target="5dwO7DrPXBND0EwMDP1_-12">
          <mxGeometry relative="1" as="geometry" />
        </mxCell>
        <mxCell id="5dwO7DrPXBND0EwMDP1_-17" value="&lt;font style=&quot;font-size: 16px;&quot;&gt;head&lt;/font&gt;" style="text;html=1;strokeColor=#b85450;fillColor=#f8cecc;align=center;verticalAlign=middle;whiteSpace=wrap;rounded=0;" vertex="1" parent="5dwO7DrPXBND0EwMDP1_-57">
          <mxGeometry x="355" y="250" width="60" height="30" as="geometry" />
        </mxCell>
        <mxCell id="5dwO7DrPXBND0EwMDP1_-19" value="" style="edgeStyle=orthogonalEdgeStyle;rounded=0;orthogonalLoop=1;jettySize=auto;html=1;fillColor=#f8cecc;strokeColor=#b85450;" edge="1" parent="5dwO7DrPXBND0EwMDP1_-57" source="5dwO7DrPXBND0EwMDP1_-20">
          <mxGeometry relative="1" as="geometry">
            <mxPoint x="255" y="150" as="targetPoint" />
          </mxGeometry>
        </mxCell>
        <mxCell id="5dwO7DrPXBND0EwMDP1_-20" value="&lt;font style=&quot;font-size: 16px;&quot;&gt;head&lt;/font&gt;" style="text;html=1;strokeColor=#b85450;fillColor=#f8cecc;align=center;verticalAlign=middle;whiteSpace=wrap;rounded=0;" vertex="1" parent="5dwO7DrPXBND0EwMDP1_-57">
          <mxGeometry x="225" y="80" width="60" height="30" as="geometry" />
        </mxCell>
        <mxCell id="5dwO7DrPXBND0EwMDP1_-22" value="初始状态" style="text;html=1;strokeColor=none;fillColor=none;align=left;verticalAlign=middle;whiteSpace=wrap;rounded=0;fontSize=17;" vertex="1" parent="5dwO7DrPXBND0EwMDP1_-57">
          <mxGeometry x="80" y="160" width="140" height="30" as="geometry" />
        </mxCell>
        <mxCell id="5dwO7DrPXBND0EwMDP1_-24" value="2作为头节点" style="text;html=1;strokeColor=none;fillColor=none;align=left;verticalAlign=middle;whiteSpace=wrap;rounded=0;fontSize=17;" vertex="1" parent="5dwO7DrPXBND0EwMDP1_-57">
          <mxGeometry x="80" y="330" width="140" height="30" as="geometry" />
        </mxCell>
        <mxCell id="5dwO7DrPXBND0EwMDP1_-26" value="1" style="ellipse;whiteSpace=wrap;html=1;aspect=fixed;fontSize=20;fillColor=#f8cecc;strokeColor=#b85450;" vertex="1" parent="5dwO7DrPXBND0EwMDP1_-57">
          <mxGeometry x="235" y="590" width="50" height="50" as="geometry" />
        </mxCell>
        <mxCell id="5dwO7DrPXBND0EwMDP1_-28" value="2" style="ellipse;whiteSpace=wrap;html=1;aspect=fixed;fontSize=20;" vertex="1" parent="5dwO7DrPXBND0EwMDP1_-57">
          <mxGeometry x="235" y="500" width="50" height="50" as="geometry" />
        </mxCell>
        <mxCell id="5dwO7DrPXBND0EwMDP1_-30" value="3" style="ellipse;whiteSpace=wrap;html=1;aspect=fixed;fontSize=20;fillColor=#f8cecc;strokeColor=#b85450;" vertex="1" parent="5dwO7DrPXBND0EwMDP1_-57">
          <mxGeometry x="365" y="500" width="50" height="50" as="geometry" />
        </mxCell>
        <mxCell id="5dwO7DrPXBND0EwMDP1_-27" value="" style="edgeStyle=orthogonalEdgeStyle;rounded=0;orthogonalLoop=1;jettySize=auto;html=1;" edge="1" parent="5dwO7DrPXBND0EwMDP1_-57" source="5dwO7DrPXBND0EwMDP1_-28" target="5dwO7DrPXBND0EwMDP1_-30">
          <mxGeometry relative="1" as="geometry" />
        </mxCell>
        <mxCell id="5dwO7DrPXBND0EwMDP1_-31" value="4" style="ellipse;whiteSpace=wrap;html=1;aspect=fixed;fontSize=20;" vertex="1" parent="5dwO7DrPXBND0EwMDP1_-57">
          <mxGeometry x="495" y="500" width="50" height="50" as="geometry" />
        </mxCell>
        <mxCell id="5dwO7DrPXBND0EwMDP1_-32" value="" style="edgeStyle=orthogonalEdgeStyle;rounded=0;orthogonalLoop=1;jettySize=auto;html=1;" edge="1" parent="5dwO7DrPXBND0EwMDP1_-57" source="5dwO7DrPXBND0EwMDP1_-33" target="5dwO7DrPXBND0EwMDP1_-28">
          <mxGeometry relative="1" as="geometry" />
        </mxCell>
        <mxCell id="5dwO7DrPXBND0EwMDP1_-33" value="&lt;font style=&quot;font-size: 16px;&quot;&gt;head&lt;/font&gt;" style="text;html=1;strokeColor=none;fillColor=none;align=center;verticalAlign=middle;whiteSpace=wrap;rounded=0;" vertex="1" parent="5dwO7DrPXBND0EwMDP1_-57">
          <mxGeometry x="230" y="430" width="60" height="30" as="geometry" />
        </mxCell>
        <mxCell id="5dwO7DrPXBND0EwMDP1_-34" value="1节点指向3节点" style="text;html=1;strokeColor=none;fillColor=none;align=left;verticalAlign=middle;whiteSpace=wrap;rounded=0;fontSize=17;" vertex="1" parent="5dwO7DrPXBND0EwMDP1_-57">
          <mxGeometry x="80" y="510" width="140" height="30" as="geometry" />
        </mxCell>
        <mxCell id="5dwO7DrPXBND0EwMDP1_-29" value="" style="edgeStyle=orthogonalEdgeStyle;rounded=0;orthogonalLoop=1;jettySize=auto;html=1;" edge="1" parent="5dwO7DrPXBND0EwMDP1_-57" source="5dwO7DrPXBND0EwMDP1_-30" target="5dwO7DrPXBND0EwMDP1_-31">
          <mxGeometry relative="1" as="geometry" />
        </mxCell>
        <mxCell id="5dwO7DrPXBND0EwMDP1_-39" value="" style="endArrow=classic;html=1;rounded=0;entryX=0.5;entryY=1;entryDx=0;entryDy=0;exitX=1;exitY=0.5;exitDx=0;exitDy=0;fillColor=#f8cecc;strokeColor=#b85450;" edge="1" parent="5dwO7DrPXBND0EwMDP1_-57" source="5dwO7DrPXBND0EwMDP1_-26" target="5dwO7DrPXBND0EwMDP1_-30">
          <mxGeometry width="50" height="50" relative="1" as="geometry">
            <mxPoint x="300" y="610" as="sourcePoint" />
            <mxPoint x="330" y="570" as="targetPoint" />
          </mxGeometry>
        </mxCell>
        <mxCell id="5dwO7DrPXBND0EwMDP1_-40" value="1" style="ellipse;whiteSpace=wrap;html=1;aspect=fixed;fontSize=20;fillColor=#f8cecc;strokeColor=#b85450;" vertex="1" parent="5dwO7DrPXBND0EwMDP1_-57">
          <mxGeometry x="235" y="820" width="50" height="50" as="geometry" />
        </mxCell>
        <mxCell id="5dwO7DrPXBND0EwMDP1_-50" value="" style="edgeStyle=orthogonalEdgeStyle;rounded=0;orthogonalLoop=1;jettySize=auto;html=1;fillColor=#f8cecc;strokeColor=#b85450;" edge="1" parent="5dwO7DrPXBND0EwMDP1_-57" source="5dwO7DrPXBND0EwMDP1_-42" target="5dwO7DrPXBND0EwMDP1_-40">
          <mxGeometry relative="1" as="geometry" />
        </mxCell>
        <mxCell id="5dwO7DrPXBND0EwMDP1_-42" value="2" style="ellipse;whiteSpace=wrap;html=1;aspect=fixed;fontSize=20;fillColor=#f8cecc;strokeColor=#b85450;" vertex="1" parent="5dwO7DrPXBND0EwMDP1_-57">
          <mxGeometry x="235" y="730" width="50" height="50" as="geometry" />
        </mxCell>
        <mxCell id="5dwO7DrPXBND0EwMDP1_-44" value="3" style="ellipse;whiteSpace=wrap;html=1;aspect=fixed;fontSize=20;" vertex="1" parent="5dwO7DrPXBND0EwMDP1_-57">
          <mxGeometry x="365" y="730" width="50" height="50" as="geometry" />
        </mxCell>
        <mxCell id="5dwO7DrPXBND0EwMDP1_-45" value="4" style="ellipse;whiteSpace=wrap;html=1;aspect=fixed;fontSize=20;" vertex="1" parent="5dwO7DrPXBND0EwMDP1_-57">
          <mxGeometry x="495" y="730" width="50" height="50" as="geometry" />
        </mxCell>
        <mxCell id="5dwO7DrPXBND0EwMDP1_-46" value="" style="edgeStyle=orthogonalEdgeStyle;rounded=0;orthogonalLoop=1;jettySize=auto;html=1;" edge="1" parent="5dwO7DrPXBND0EwMDP1_-57" target="5dwO7DrPXBND0EwMDP1_-42">
          <mxGeometry relative="1" as="geometry">
            <mxPoint x="260" y="690" as="sourcePoint" />
          </mxGeometry>
        </mxCell>
        <mxCell id="5dwO7DrPXBND0EwMDP1_-47" value="2节点指向1节点" style="text;html=1;strokeColor=none;fillColor=none;align=left;verticalAlign=middle;whiteSpace=wrap;rounded=0;fontSize=17;" vertex="1" parent="5dwO7DrPXBND0EwMDP1_-57">
          <mxGeometry x="80" y="740" width="140" height="30" as="geometry" />
        </mxCell>
        <mxCell id="5dwO7DrPXBND0EwMDP1_-43" value="" style="edgeStyle=orthogonalEdgeStyle;rounded=0;orthogonalLoop=1;jettySize=auto;html=1;" edge="1" parent="5dwO7DrPXBND0EwMDP1_-57" source="5dwO7DrPXBND0EwMDP1_-44" target="5dwO7DrPXBND0EwMDP1_-45">
          <mxGeometry relative="1" as="geometry" />
        </mxCell>
        <mxCell id="5dwO7DrPXBND0EwMDP1_-48" value="" style="endArrow=classic;html=1;rounded=0;entryX=0.5;entryY=1;entryDx=0;entryDy=0;exitX=1;exitY=0.5;exitDx=0;exitDy=0;" edge="1" parent="5dwO7DrPXBND0EwMDP1_-57" source="5dwO7DrPXBND0EwMDP1_-40" target="5dwO7DrPXBND0EwMDP1_-44">
          <mxGeometry width="50" height="50" relative="1" as="geometry">
            <mxPoint x="300" y="840" as="sourcePoint" />
            <mxPoint x="330" y="800" as="targetPoint" />
          </mxGeometry>
        </mxCell>
        <mxCell id="5dwO7DrPXBND0EwMDP1_-49" value="&lt;font style=&quot;font-size: 16px;&quot;&gt;head&lt;/font&gt;" style="text;html=1;strokeColor=none;fillColor=none;align=center;verticalAlign=middle;whiteSpace=wrap;rounded=0;" vertex="1" parent="5dwO7DrPXBND0EwMDP1_-57">
          <mxGeometry x="230" y="660" width="60" height="30" as="geometry" />
        </mxCell>
        <mxCell id="5dwO7DrPXBND0EwMDP1_-51" value="3号节点作为下次递归入参" style="ellipse;shape=cloud;whiteSpace=wrap;html=1;" vertex="1" parent="5dwO7DrPXBND0EwMDP1_-57">
          <mxGeometry x="580" y="707.5" width="180" height="95" as="geometry" />
        </mxCell>
      </root>
    </mxGraphModel>
  </diagram>
</mxfile>
